<svg width="100" height="100" viewBox="0 0 100 100" fill="none" xmlns="http://www.w3.org/2000/svg">
<circle cx="50" cy="50" r="50" fill="#FF6200"/>
<path d="M73.6628 47.395C73.6568 47.3021 73.6399 47.2133 73.6101 47.1255C73.5992 47.0929 73.5913 47.0612 73.5773 47.0296C73.5297 46.9234 73.4691 46.8234 73.3856 46.7386L73.3847 46.7376L67.7162 40.9107V35.2083C67.7162 35.1859 67.7053 35.1665 67.7033 35.144C67.6973 35.0542 67.6805 34.9674 67.6526 34.8817C67.6417 34.849 67.6338 34.8174 67.6189 34.7857C67.5702 34.6775 67.5096 34.5744 67.4242 34.4866L58.485 25.2991C58.3996 25.2113 58.2993 25.148 58.193 25.098C58.1632 25.0847 58.1334 25.0755 58.1036 25.0653C58.0182 25.0347 57.9308 25.0174 57.8414 25.0112C57.8215 25.0102 57.8036 25 57.7838 25H32.9527C32.4044 25 31.9595 25.4573 31.9595 26.0208V40.9107L26.291 46.7366L26.289 46.7386C26.2056 46.8244 26.146 46.9244 26.0983 47.0296C26.0844 47.0612 26.0765 47.0929 26.0656 47.1255C26.0358 47.2133 26.0179 47.3021 26.0129 47.395C26.0109 47.4175 26 47.4359 26 47.4583V66.8542C26 67.4177 26.445 67.875 26.9932 67.875H31.9595V72.9792C31.9595 73.5427 32.4044 74 32.9527 74H66.723C67.2712 74 67.7162 73.5427 67.7162 72.9792V67.875H72.6824C73.2307 67.875 73.6757 67.4177 73.6757 66.8542V47.4583C73.6757 47.4359 73.6647 47.4175 73.6628 47.395ZM70.2847 46.4375H67.7162V43.7976L70.2847 46.4375ZM64.3253 34.1875H58.777V28.4851L64.3253 34.1875ZM33.9459 27.0417H56.7905V35.2083C56.7905 35.7718 57.2355 36.2292 57.7838 36.2292H65.7297V41.3333V46.4375H33.9459V41.3333V27.0417ZM31.9595 43.7976V46.4375H29.3909L31.9595 43.7976ZM65.7297 71.9583H33.9459V67.875H65.7297V71.9583ZM71.6892 65.8333H27.9865V48.4792H32.9527H66.723H71.6892V65.8333Z" fill="white"/>
<path d="M44.1306 52.2757C43.8098 51.9929 43.4472 51.7928 43.041 51.6774C42.6358 51.5621 42.2414 51.5039 41.859 51.5039H38.5496V63.7907H40.542V58.8621H41.9604C42.3765 58.8621 42.7818 58.7865 43.1761 58.6365C43.5704 58.4864 43.919 58.2547 44.223 57.9423C44.5269 57.6299 44.7712 57.24 44.958 56.7704C45.1437 56.3018 45.2371 55.7557 45.2371 55.1309C45.2371 54.4368 45.1328 53.8579 44.9242 53.3955C44.7156 52.9331 44.4514 52.5594 44.1306 52.2757ZM42.8563 56.6499C42.5523 56.9909 42.164 57.1614 41.6912 57.1614H40.543V53.2567H41.6912C42.164 53.2567 42.5523 53.4067 42.8563 53.7079C43.1602 54.009 43.3122 54.4888 43.3122 55.1483C43.3122 55.8077 43.1602 56.3079 42.8563 56.6499Z" fill="white"/>
<path d="M56.5154 63.7907H58.5585V58.515H61.6147V56.7275H58.5426V53.3782H61.868V51.5039H56.5154V63.7907Z" fill="white"/>
<path d="M49.9133 51.5039H46.9077V63.7907H49.8964C51.4389 63.7907 52.6069 63.2557 53.4005 62.1859C54.1941 61.1151 54.5905 59.6083 54.5905 57.6646C54.5905 55.721 54.1941 54.2081 53.4005 53.126C52.6069 52.0449 51.4449 51.5039 49.9133 51.5039ZM52.3706 59.547C52.2414 60.086 52.0577 60.5342 51.8223 60.8925C51.5859 61.2508 51.3048 61.5203 50.978 61.699C50.6512 61.8786 50.2967 61.9685 49.9143 61.9685H48.9518V53.3261H49.9143C50.2967 53.3261 50.6512 53.4159 50.978 53.5956C51.3048 53.7742 51.5859 54.0437 51.8223 54.4021C52.0587 54.7604 52.2414 55.2116 52.3706 55.7557C52.4997 56.2998 52.5652 56.9358 52.5652 57.6646C52.5652 58.3823 52.4997 59.0091 52.3706 59.547Z" fill="white"/>
</svg>
