<svg width="19" height="21" viewBox="0 0 19 21" fill="none" xmlns="http://www.w3.org/2000/svg">
<circle cx="9.09874" cy="9.3751" r="8.73479" fill="#FF6200" stroke="white" stroke-width="0.727899"/>
<path d="M8.12587 11.3885C8.12587 11.0149 8.20655 10.6667 8.36791 10.3439C8.52927 10.0212 8.7246 9.74522 8.9539 9.51592C9.1832 9.28662 9.4125 9.07006 9.64179 8.86624C9.87109 8.65393 10.0664 8.42463 10.2278 8.17834C10.3891 7.92356 10.4698 7.65605 10.4698 7.37579C10.4698 6.95116 10.3212 6.62845 10.024 6.40764C9.73521 6.17834 9.35729 6.06369 8.8902 6.06369C7.95602 6.06369 7.35729 6.47558 7.09402 7.29936L6.08765 6.73885C6.29997 6.14437 6.6609 5.69426 7.17046 5.38853C7.68001 5.07431 8.25751 4.91719 8.90294 4.91719C9.65878 4.91719 10.3042 5.12951 10.8392 5.55414C11.3828 5.97877 11.6545 6.569 11.6545 7.32484C11.6545 7.68153 11.5739 8.01698 11.4125 8.33121C11.2511 8.64543 11.0558 8.9172 10.8265 9.14649C10.5972 9.37579 10.3679 9.60085 10.1386 9.82165C9.90931 10.034 9.71398 10.276 9.55262 10.5478C9.39126 10.811 9.31058 11.0913 9.31058 11.3885H8.12587ZM8.71186 14.1401C8.48256 14.1401 8.28723 14.0594 8.12587 13.8981C7.96451 13.7367 7.88383 13.5414 7.88383 13.3121C7.88383 13.0828 7.96451 12.8875 8.12587 12.7261C8.28723 12.5648 8.48256 12.4841 8.71186 12.4841C8.94965 12.4841 9.14498 12.5648 9.29785 12.7261C9.4592 12.8875 9.53988 13.0828 9.53988 13.3121C9.53988 13.5414 9.4592 13.7367 9.29785 13.8981C9.14498 14.0594 8.94965 14.1401 8.71186 14.1401Z" fill="white"/>
</svg>
